<svg width="132" height="87" viewBox="0 0 132 87" fill="none" xmlns="http://www.w3.org/2000/svg">
<path d="M83.0301 15.14H48.3701V71.75H83.0301V15.14Z" fill="#CCD7F9"/>
<path d="M51.94 43.45C51.9357 37.9989 53.1714 32.6183 55.5536 27.7154C57.9358 22.8124 61.402 18.5155 65.69 15.15C60.3791 10.9762 54.0011 8.38077 47.285 7.66033C40.5688 6.93989 33.7855 8.1235 27.7102 11.0759C21.6349 14.0283 16.5127 18.6303 12.9292 24.3561C9.34567 30.0818 7.44531 36.7003 7.44531 43.455C7.44531 50.2097 9.34567 56.8281 12.9292 62.5539C16.5127 68.2796 21.6349 72.8817 27.7102 75.8341C33.7855 78.7864 40.5688 79.9701 47.285 79.2496C54.0011 78.5292 60.3791 75.9338 65.69 71.76C61.4007 68.3934 57.9337 64.0949 55.5514 59.1901C53.1692 54.2853 51.9342 48.9027 51.94 43.45V43.45Z" fill="#010202"/>
<path d="M120.5 65.76V64.6H121V64.36H119.81V64.6H120.28V65.76H120.5ZM122.81 65.76V64.36H122.45L122.03 65.36L121.61 64.36H121.25V65.76H121.51V64.7L121.9 65.61H122.17L122.56 64.7V65.76H122.81Z" fill="#F79E1B"/>
<path d="M123.94 43.45C123.94 50.2052 122.039 56.824 118.455 62.55C114.871 68.2759 109.748 72.8779 103.672 75.8299C97.5956 78.7818 90.8116 79.9647 84.095 79.2432C77.3785 78.5218 71.0004 75.9251 65.6899 71.75C69.9762 68.3814 73.4415 64.0834 75.8243 59.1801C78.2071 54.2769 79.4452 48.8965 79.4452 43.445C79.4452 37.9934 78.2071 32.613 75.8243 27.7098C73.4415 22.8066 69.9762 18.5085 65.6899 15.14C71.0004 10.9649 77.3785 8.3682 84.095 7.64673C90.8116 6.92525 97.5956 8.10811 103.672 11.0601C109.748 14.0121 114.871 18.614 118.455 24.34C122.039 30.0659 123.94 36.6848 123.94 43.44V43.45Z" fill="#63687A"/>
</svg>
